<?xml version="1.0" encoding="UTF-8"?>
<svg xmlns="http://www.w3.org/2000/svg" xmlns:xlink="http://www.w3.org/1999/xlink" width="3000" height="3320" viewBox="0 0 3000 3320">
<path fill-rule="nonzero" fill="rgb(0%, 0%, 0%)" fill-opacity="1" d="M 962.84375 3311.363281 C 950.984375 3308.394531 927.335938 3296.070312 910.292969 3283.972656 C 884.929688 3265.972656 861.453125 3261.78125 780.910156 3260.867188 C 633.378906 3259.191406 578.292969 3220.5625 578.292969 3118.769531 C 578.292969 3055.414062 607.453125 3023.027344 689.402344 2995.351562 L 747.207031 2975.832031 L 750.632812 2913.042969 C 757.535156 2786.621094 721.375 2628.722656 596.417969 2239.621094 C 526.554688 2022.078125 508.394531 1803.480469 541.902344 1583.390625 C 560.550781 1460.910156 587.261719 1380.179688 643.871094 1275.230469 L 685.996094 1197.140625 L 611.609375 1147.679688 C 570.695312 1120.46875 526.960938 1098.210938 514.421875 1098.210938 C 486.644531 1098.210938 333.125 1169.191406 244.636719 1222.941406 C 163.617188 1272.160156 147.207031 1263.710938 225.964844 1213.328125 C 279.023438 1179.390625 464.921875 1087.648438 481.429688 1087.269531 C 485.289062 1087.179688 495.527344 1082.621094 504.1875 1077.140625 C 517.660156 1068.621094 517.03125 1063.980469 499.820312 1044.960938 C 469.628906 1011.601562 429.308594 1016.96875 256.550781 1077.359375 C 55.558594 1147.609375 38.195312 1150.910156 143.425781 1098.859375 C 216.863281 1062.539062 279.792969 1039.941406 439.042969 992.730469 C 473.734375 982.449219 478.242188 964.019531 452.398438 938.171875 C 436.769531 922.550781 408.960938 914.871094 346.953125 909.058594 C 267.605469 901.621094 96.398438 908.070312 24.828125 921.191406 C -5.382812 926.730469 -6.195312 926.039062 12.554688 910.859375 C 42.726562 886.429688 136.179688 878.738281 302.664062 886.980469 L 452.34375 894.390625 L 448.828125 870.589844 C 444.417969 840.699219 380.570312 817.738281 229.679688 791.769531 C 170.382812 781.570312 102.457031 769.300781 78.734375 764.5 L 35.609375 755.78125 L 84.125 754.519531 C 144.347656 752.960938 294.589844 779.058594 380.625 806.03125 L 445.316406 826.320312 L 464.5625 729.28125 C 484.363281 629.460938 506.871094 574.828125 559.101562 499.820312 C 578.820312 471.5 591.519531 436.339844 596.085938 397.390625 C 607.535156 299.738281 624.277344 213.109375 647.132812 133.238281 C 689.207031 -13.769531 710.527344 -29.308594 776.617188 38.898438 C 817.925781 81.53125 922.523438 242.058594 946.136719 299.070312 C 957.476562 326.449219 966.34375 332.769531 993.800781 333.039062 C 1028.238281 333.371094 1235.210938 368.808594 1277.109375 381.519531 C 1295.449219 387.089844 1316.089844 374.03125 1376.371094 318.710938 C 1498.558594 206.589844 1595.121094 137.878906 1625.929688 141.160156 C 1652.570312 143.988281 1652.859375 145.128906 1651.640625 241.058594 C 1650.730469 312.339844 1641.261719 373.121094 1615.960938 470.058594 L 1581.53125 602.03125 L 1608.800781 637.769531 C 1656.03125 699.691406 1683.328125 774.808594 1683.378906 842.929688 C 1683.421875 901.429688 1684.96875 905.269531 1705.890625 899.25 C 1777.660156 878.578125 1857.390625 870.03125 1934.578125 874.710938 C 2081.449219 883.621094 2068.578125 898.691406 1913.539062 899.359375 C 1732.199219 900.121094 1694.519531 912.171875 1662.429688 979.609375 L 1639.339844 1028.128906 L 1732.359375 1051.359375 C 1783.53125 1064.140625 1876.328125 1094.429688 1938.601562 1118.691406 C 2000.859375 1142.941406 2057.871094 1162.808594 2065.289062 1162.839844 C 2072.699219 1162.871094 2078.761719 1167.75 2078.761719 1173.679688 C 2078.761719 1188.359375 2087.910156 1190.789062 1917.828125 1130.839844 C 1832.679688 1100.820312 1735.421875 1074.109375 1696.929688 1070.160156 C 1634.25 1063.738281 1627.078125 1065.128906 1616.03125 1085.78125 C 1605.300781 1105.828125 1608.570312 1111.378906 1644.558594 1134.089844 C 1666.929688 1148.199219 1706.140625 1170.410156 1731.710938 1183.441406 C 1800.679688 1218.609375 1888.851562 1276.648438 1906.71875 1298.648438 C 1924.851562 1320.980469 1924.878906 1320.988281 1836.171875 1264.679688 C 1766.269531 1220.320312 1608.960938 1141.339844 1590.488281 1141.339844 C 1582.589844 1141.339844 1567.460938 1147.679688 1556.859375 1155.441406 C 1539.351562 1168.238281 1544.890625 1174.660156 1616.789062 1224.949219 C 1704.378906 1286.210938 1740.519531 1316.851562 1772.019531 1356.5 C 1783.578125 1371.070312 1763.929688 1358.390625 1728.351562 1328.328125 C 1640.25 1253.910156 1549.859375 1195.210938 1523.640625 1195.410156 C 1466.210938 1195.851562 1469 1209.300781 1558.628906 1363.910156 C 1698.199219 1604.71875 1851.359375 1949.960938 1895.128906 2122.480469 C 1906.410156 2166.960938 1919.089844 2239.738281 1923.300781 2284.210938 C 1928.039062 2334.394531 1944.640625 2400.65625 1967.058594 2458.84375 C 1986.910156 2510.417969 2008.578125 2588.046875 2015.210938 2631.355469 C 2030.828125 2733.414062 2040.308594 2756.289062 2073.179688 2771.269531 C 2155.449219 2808.75 2337.621094 2666.617188 2469.421875 2462.109375 C 2564.628906 2314.371094 2619.648438 2179.25 2662.570312 1987.710938 C 2690.441406 1863.378906 2701.789062 1565.011719 2683.21875 1445.390625 C 2648.75 1223.449219 2600.859375 1104.839844 2463.671875 901.628906 C 2365.699219 756.519531 2346.050781 710.738281 2355.839844 650.398438 C 2371.558594 553.589844 2473.390625 527.230469 2576.960938 593.160156 C 2633.710938 629.289062 2738.28125 736.789062 2790.519531 812.71875 C 2870.859375 929.5 2937.28125 1110.339844 2980.511719 1330.019531 C 3006.691406 1463.039062 3006.460938 1749.769531 2980.039062 1912.238281 C 2954.359375 2070.160156 2900.570312 2253.691406 2838.28125 2395.933594 C 2665.609375 2790.199219 2312.371094 3091.59375 1983.078125 3125.597656 C 1921.441406 3131.964844 1862.980469 3146.996094 1798.820312 3172.972656 C 1673.921875 3223.539062 1567.980469 3245.671875 1436.910156 3248.578125 C 1358.730469 3250.308594 1321.390625 3255.804688 1302.140625 3268.398438 C 1241.238281 3308.253906 1048.101562 3332.710938 962.84375 3311.363281 Z M 1697.910156 969.75 C 1732.46875 954.398438 1844.789062 946.679688 1863.300781 958.378906 C 1874.410156 965.410156 1861.191406 968.589844 1820 968.78125 C 1787.378906 968.941406 1741.289062 971.570312 1717.570312 974.621094 C 1683.898438 978.949219 1679.589844 977.878906 1697.910156 969.75 Z M 1697.910156 969.75 "/>
</svg>
